<svg xmlns="http://www.w3.org/2000/svg" width="110.971" height="115.954" viewBox="0 0 110.971 115.954">
  <g id="OPT_Verify_Illustration" data-name="OPT Verify Illustration" transform="translate(-701.518 -326.208)">
    <g id="smartphone" transform="translate(701.518 326.208)">
      <path id="Path_17127" data-name="Path 17127" d="M59.209,132.845,90.655,120.4a55.486,55.486,0,1,0-35.169,12.569c1.252,0,2.492-.045,3.723-.126Zm0,0" transform="translate(0 -17.017)" fill="#27a3ff"/>
      <path id="Path_17128" data-name="Path 17128" d="M210.737,162.367a29.54,29.54,0,0,0-2.744-15.543c-6.124-12.459-4.72-13.363-4.91-25.728a4.574,4.574,0,1,0-9.147,0v45.988a10.143,10.143,0,0,1-.217,2.081v6.584a10.073,10.073,0,0,1-10.061,10.062H158.621a35.525,35.525,0,0,0,15.214,12.074l.114.047a14.917,14.917,0,0,1,7.957,8.029,55.225,55.225,0,0,0,31.446-12.442L209.943,181a15.986,15.986,0,0,1-.507-5.5Zm0,0" transform="translate(-122.697 -90.134)" fill="#f9cfa9"/>
      <path id="Path_17129" data-name="Path 17129" d="M48.336,108l-1.393-1.291a5.323,5.323,0,0,0-7.236,7.809l8.629,8Zm0,0" transform="translate(-29.4 -81.448)" fill="#f9cfa9"/>
      <path id="Path_17130" data-name="Path 17130" d="M128.513,0H89.4a6.891,6.891,0,0,0-6.883,6.884V89.315A6.891,6.891,0,0,0,89.4,96.2h39.115a6.892,6.892,0,0,0,6.884-6.884V6.884A6.892,6.892,0,0,0,128.513,0Zm0,0" transform="translate(-63.827)" fill="#3d4ec6"/>
      <path id="Path_17131" data-name="Path 17131" d="M95.766,5.1A3.477,3.477,0,0,1,97.217,0H89.4a6.884,6.884,0,0,0-6.884,6.884V89.315A6.883,6.883,0,0,0,89.4,96.2h8.316V11.137A10.839,10.839,0,0,0,95.766,5.1Zm0,0" transform="translate(-63.824 0)" fill="#2b3894"/>
      <path id="Path_17132" data-name="Path 17132" d="M100.109,191.977v45.838a2.9,2.9,0,0,0,2.9,2.9h39.115a2.9,2.9,0,0,0,2.9-2.9V191.977Zm0,0" transform="translate(-77.436 -148.5)" fill="#e6f7fe"/>
      <path id="Path_17133" data-name="Path 17133" d="M100.109,191.977v45.838a2.9,2.9,0,0,0,2.9,2.9h6.856V191.977Zm0,0" transform="translate(-77.436 -148.499)" fill="#d5f1fe"/>
      <path id="Path_17134" data-name="Path 17134" d="M138.656,237.518a4.541,4.541,0,1,1-4.541-4.542A4.541,4.541,0,0,1,138.656,237.518Zm0,0" transform="translate(-100.229 -180.214)" fill="#3d4ec6"/>
      <path id="Path_17135" data-name="Path 17135" d="M138.656,311.873a4.541,4.541,0,1,1-4.541-4.541A4.542,4.542,0,0,1,138.656,311.873Zm0,0" transform="translate(-100.229 -237.73)" fill="#3d4ec6"/>
      <path id="Path_17136" data-name="Path 17136" d="M133.6,233.113a4.54,4.54,0,1,0,4.272,7.058A4.544,4.544,0,0,1,133.6,233.113Zm0,0" transform="translate(-100.228 -180.319)" fill="#2b3894"/>
      <path id="Path_17137" data-name="Path 17137" d="M133.6,307.469a4.54,4.54,0,1,0,4.272,7.058A4.544,4.544,0,0,1,133.6,307.469Zm0,0" transform="translate(-100.228 -237.836)" fill="#2b3894"/>
      <g id="Group_12958" data-name="Group 12958" transform="translate(44.298 52.02)">
        <path id="Path_17138" data-name="Path 17138" d="M203.743,233.092H197.3a1.7,1.7,0,0,1,0-3.4h6.447a1.7,1.7,0,0,1,0,3.4Zm0,0" transform="translate(-195.597 -229.695)" fill="#11dfef"/>
        <path id="Path_17139" data-name="Path 17139" d="M210.191,264.764H197.3a1.7,1.7,0,1,1,0-3.4h12.895a1.7,1.7,0,1,1,0,3.4Zm0,0" transform="translate(-195.597 -254.194)" fill="#11dfef"/>
        <path id="Path_17140" data-name="Path 17140" d="M203.743,307.444H197.3a1.7,1.7,0,0,1,0-3.4h6.447a1.7,1.7,0,0,1,0,3.4Zm0,0" transform="translate(-195.597 -287.208)" fill="#11dfef"/>
        <path id="Path_17141" data-name="Path 17141" d="M210.191,339.116H197.3a1.7,1.7,0,1,1,0-3.4h12.895a1.7,1.7,0,1,1,0,3.4Zm0,0" transform="translate(-195.597 -311.707)" fill="#11dfef"/>
      </g>
      <path id="Path_17142" data-name="Path 17142" d="M142.021,17.6h-5.813a.992.992,0,0,0-.993.992,2.4,2.4,0,0,1-2.39,2.391H112.1a2.4,2.4,0,0,1-2.391-2.391.992.992,0,0,0-.993-.992h-5.813a2.9,2.9,0,0,0-2.9,2.9V57.543h44.912V20.5a2.9,2.9,0,0,0-2.9-2.9Zm0,0" transform="translate(-77.358 -13.612)" fill="#81c341"/>
      <path id="Path_17143" data-name="Path 17143" d="M109.785,19.163a2.354,2.354,0,0,1-.073-.572.992.992,0,0,0-.993-.993h-5.813a2.9,2.9,0,0,0-2.9,2.9V57.543h9.777Zm0,0" transform="translate(-77.358 -13.612)" fill="#bce693"/>
      <path id="Path_17144" data-name="Path 17144" d="M215.075,17.6h-5.813a.992.992,0,0,0-.993.992,2.4,2.4,0,0,1-2.39,2.391H194.45l23.524,29.487V20.5a2.9,2.9,0,0,0-2.9-2.9Zm0,0" transform="translate(-150.411 -13.612)" fill="#639137"/>
      <path id="Path_17145" data-name="Path 17145" d="M134.363,65.6h-7.833a1.7,1.7,0,1,1,0-3.4h7.833a1.7,1.7,0,1,1,0,3.4Zm0,0" transform="translate(-96.56 -48.119)" fill="#fff"/>
      <path id="Path_17146" data-name="Path 17146" d="M63.515,189.706a4.665,4.665,0,0,1-6.592.251l-7.812-7.239a4.664,4.664,0,0,1,6.34-6.843l7.812,7.239A4.665,4.665,0,0,1,63.515,189.706Zm0,0" transform="translate(-36.832 -135.083)" fill="#f9cfa9"/>
      <path id="Path_17147" data-name="Path 17147" d="M82.361,200.326l-3.716-3.443a5.476,5.476,0,0,1-6.339,6.843l3.716,3.443a4.664,4.664,0,0,0,6.34-6.843Zm0,0" transform="translate(-55.929 -152.294)" fill="#fbbc8d"/>
      <path id="Path_17148" data-name="Path 17148" d="M63.515,245.881a4.664,4.664,0,0,1-6.592.251l-7.812-7.239a4.664,4.664,0,1,1,6.34-6.842l7.812,7.239A4.664,4.664,0,0,1,63.515,245.881Zm0,0" transform="translate(-36.832 -178.537)" fill="#f9cfa9"/>
      <path id="Path_17149" data-name="Path 17149" d="M63.515,302.054a4.664,4.664,0,0,1-6.592.251l-7.812-7.239a4.664,4.664,0,1,1,6.34-6.843l7.812,7.239A4.665,4.665,0,0,1,63.515,302.054Zm0,0" transform="translate(-36.832 -221.987)" fill="#f9cfa9"/>
      <path id="Path_17150" data-name="Path 17150" d="M242.891,391.946a16.086,16.086,0,0,1-.491-2.711,37.22,37.22,0,0,1-41.185,16.682,35.491,35.491,0,0,0,5.568,2.918l.114.048a14.911,14.911,0,0,1,7.957,8.029A55.224,55.224,0,0,0,246.3,404.468Zm0,0" transform="translate(-155.645 -301.084)" fill="#fbbc8d"/>
      <path id="Path_17151" data-name="Path 17151" d="M82.361,256.5l-3.716-3.443A5.476,5.476,0,0,1,72.3,259.9l3.716,3.442a4.664,4.664,0,1,0,6.34-6.842Zm0,0" transform="translate(-55.929 -195.748)" fill="#fbbc8d"/>
      <path id="Path_17152" data-name="Path 17152" d="M82.361,312.674l-3.716-3.443a5.476,5.476,0,0,1-6.339,6.843l3.716,3.443a4.664,4.664,0,1,0,6.34-6.843Zm0,0" transform="translate(-55.929 -239.199)" fill="#fbbc8d"/>
    </g>
  </g>
</svg>
